<svg width="44" height="35" viewBox="0 0 44 35" fill="none" xmlns="http://www.w3.org/2000/svg">
<circle cx="26.5" cy="17.5" r="17.5" fill="#EED653"/>
<path d="M18.48 18.0813C18.6209 17.7469 18.7 17.3812 18.7 17C18.7 15.3438 17.2219 14 15.4 14C14.7228 14 14.0903 14.1875 13.5678 14.5062C12.6156 13.0062 10.8384 12 8.8 12C5.76125 12 3.3 14.2375 3.3 17C3.3 17.0844 3.30344 17.1688 3.30687 17.2531C1.38187 17.8688 0 19.5375 0 21.5C0 23.9844 2.21719 26 4.95 26H17.6C20.0303 26 22 24.2094 22 22C22 20.0656 20.4875 18.45 18.48 18.0813Z" fill="white"/>
</svg>
